<svg xmlns="http://www.w3.org/2000/svg" width="15" height="17" fill="none"><path fill="#fff" d="M2.908 5.01C3.924 4.6 4.468 3.47 4.055 2.45 3.643 1.432.879 0 .879 0S-.113 2.953.3 3.97c.413 1.02 1.59 1.453 2.609 1.04ZM7.165 11.029s-1.02 2.875-.61 3.89c.413 1.02 1.587 1.455 2.607 1.042 1.019-.412 1.56-1.541 1.147-2.56-.412-1.017-3.144-2.372-3.144-2.372ZM.78 9.88s-1.12 3.096-.676 4.19c.444 1.098 1.733 1.578 2.831 1.133a2.09 2.09 0 0 0 1.163-2.75C3.655 11.36.78 9.88.78 9.88ZM7.14 8.942c.626-.253.874-.99.652-1.538-.254-.628-1.855-1.436-1.855-1.436s-.589 1.695-.335 2.323c.222.548.912.904 1.539.65ZM13.275 8.681c-.254-.628-1.856-1.436-1.856-1.436s-.588 1.695-.334 2.323c.222.548.912.905 1.538.651.625-.253.874-.99.652-1.538ZM12.053 2.636C11.64 1.62 8.877.188 8.877.188s-.992 2.953-.58 3.969c.413 1.02 1.59 1.453 2.608 1.04 1.017-.41 1.56-1.54 1.148-2.56ZM14.802 14.742c-.254-.629-1.856-1.437-1.856-1.437s-.588 1.695-.334 2.323c.222.548.912.905 1.538.651.625-.253.874-.99.652-1.537Z"/></svg>