<svg xmlns="http://www.w3.org/2000/svg" width="19" height="18" fill="none"><path fill="#fff" d="M.933 7.376H8.61a3.769 3.769 0 0 0 3.77-3.334 3.656 3.656 0 0 0-.943-2.834A3.697 3.697 0 0 0 8.71 0H6.638a.933.933 0 0 0 0 1.866H8.71a1.825 1.825 0 0 1 1.806 2.063 1.864 1.864 0 0 1-1.88 1.58H.933a.933.933 0 1 0 0 1.866ZM17.983 13.53a3.769 3.769 0 0 0-3.77-3.334H7.8a.933.933 0 1 0 0 1.865h6.439a1.865 1.865 0 0 1 1.88 1.581 1.824 1.824 0 0 1-1.807 2.064H12.24a.933.933 0 1 0 0 1.865h2.072a3.696 3.696 0 0 0 2.728-1.207 3.655 3.655 0 0 0 .943-2.834ZM5.745 11.13a.934.934 0 0 0-.933-.934H.932a.933.933 0 1 0 0 1.865h3.88a.934.934 0 0 0 .933-.932ZM12.705 7.978a.3.3 0 0 0 .212-.088l.633-.632a2.56 2.56 0 0 0 2.97-3.18.3.3 0 0 0-.213-.212 2.561 2.561 0 0 0-3.18 2.97l-.634.63a.3.3 0 0 0 .212.512Z"/><path fill="#fff" d="m6.231 13.324-.632-.632a.3.3 0 0 0-.424.425l.632.632c-.163.836.099 1.699.699 2.304.624.618 2.019 1.142 2.694.45a2.561 2.561 0 0 0-2.969-3.18v.001Z"/></svg>