<svg xmlns="http://www.w3.org/2000/svg" width="8" height="18" fill="none"><path fill="#fff" d="M4.029 13.164c-.251-.218-.456-.669-.456-1.002V.605A.606.606 0 0 0 2.968 0h-.775a.606.606 0 0 0-.605.605v11.557c0 .333-.213.774-.474.98 0 0-1.114.882-1.114 1.716 0 1.288 1.133 2.332 2.531 2.332 1.398 0 2.53-1.044 2.53-2.332 0-.794-1.032-1.694-1.032-1.694Z"/><path fill="#fff" d="M3.322 3.358a.606.606 0 0 1-.605.605h-.265a.606.606 0 0 1-.604-.605V.868c0-.333.272-.605.604-.605h.265c.332 0 .604.272.604.604v2.491ZM6.592 10.601a1.033 1.033 0 1 1-2.067 0l1.02-1.86 1.047 1.86ZM7.705 12.293a.6.6 0 1 1-1.2-.012l.602-1.074.598 1.085ZM7.487 9.64a.357.357 0 1 1-.715-.006l.36-.64.355.647ZM4.007 15.337h.038c.04 0-.047.244-.194.543l-.048.096c-.147.299-.486.543-.753.543H2.08c-.267 0-.605-.244-.752-.542l-.048-.098c-.147-.298-.234-.542-.193-.542H4.007ZM2.345 15.075c-.385-.022-.606-.146-.803-.52-.197-.374-.173-.518.026-.955l.012.001c.464.083.595.147.79.518.197.374.175.627-.025.956M2.796 14.01c-.171-.01-.27-.065-.357-.232-.088-.166-.078-.23.011-.425h.005c.207.037.266.066.352.231.088.166.078.28-.011.426M3.018 15.075c-.175-.215-.216-.393-.113-.679.103-.286.19-.343.52-.45l.005.007c.181.287.21.388.108.671-.103.287-.248.397-.52.45"/></svg>